                        <svg
                          width="14"
                          height="14"
                          viewBox="0 0 14 14"
                          fill="none"
                          xmlns="http://www.w3.org/2000/svg"
                        >
                          <path
                            d="M12.3957 5.33752C11.0482 3.22002 9.0765 2.00085 6.99984 2.00085C5.9615 2.00085 4.95234 2.30419 4.03067 2.87002C3.109 3.44169 2.28067 4.27585 1.604 5.33752C1.02067 6.25335 1.02067 7.74085 1.604 8.65669C2.9515 10.78 4.92317 11.9934 6.99984 11.9934C8.03817 11.9934 9.04734 11.69 9.969 11.1242C10.8907 10.5525 11.719 9.71835 12.3957 8.65669C12.979 7.74669 12.979 6.25335 12.3957 5.33752ZM6.99984 9.35669C5.69317 9.35669 4.64317 8.30085 4.64317 7.00002C4.64317 5.69919 5.69317 4.64335 6.99984 4.64335C8.3065 4.64335 9.35651 5.69919 9.35651 7.00002C9.35651 8.30085 8.3065 9.35669 6.99984 9.35669Z"
                            fill="#111111"
                          />
                          <path
                            d="M6.99966 5.33167C6.08383 5.33167 5.33716 6.07833 5.33716 7C5.33716 7.91583 6.08383 8.6625 6.99966 8.6625C7.91549 8.6625 8.66799 7.91583 8.66799 7C8.66799 6.08416 7.91549 5.33167 6.99966 5.33167Z"
                            fill="#111111"
                          />
                        </svg>